<svg width="24" height="24" viewBox="0 0 24 24" fill="none" xmlns="http://www.w3.org/2000/svg">
<path d="M12 19C12.2163 19 12.4283 18.9946 12.6361 18.9841C13.4955 18.941 13.8048 17.9258 13.1963 17.3173C12.9708 17.0918 12.6581 16.9799 12.3394 16.9928C12.228 16.9973 12.1151 17 12 17C6.64898 17 4.57598 13.154 4.07398 12C4.32169 11.4472 4.62646 10.9228 4.98283 10.4351C5.29522 10.0076 5.28708 9.40807 4.91269 9.03368C4.51506 8.63605 3.86277 8.6472 3.52146 9.0941C2.4751 10.4641 2.06123 11.6562 2.05198 11.684C1.983 11.8893 1.983 12.1116 2.05198 12.317C2.07298 12.383 4.36698 19 12 19ZM12 4.99997C10.163 4.99997 8.65398 5.39597 7.39598 5.98097L4.41403 2.99983C4.02352 2.60942 3.39048 2.60947 3.00003 2.99992C2.60953 3.39041 2.60954 4.02352 3.00003 4.41402L19.586 21C19.9764 21.3904 20.6095 21.3904 21 21C21.3904 20.6095 21.3904 19.9764 21 19.586L18.388 16.974C21.002 15.023 21.935 12.359 21.949 12.317C22.018 12.1116 22.018 11.8893 21.949 11.684C21.927 11.617 19.633 4.99997 12 4.99997ZM16.972 15.558L14.692 13.278C14.882 12.888 15 12.459 15 12C15 10.359 13.641 8.99997 12 8.99997C11.541 8.99997 11.112 9.11797 10.723 9.30897L8.91498 7.50097C9.9075 7.16038 10.9507 6.99097 12 6.99997C17.351 6.99997 19.424 10.846 19.926 12C19.624 12.692 18.76 14.342 16.972 15.558Z" fill="#1FC9FD"/>
</svg>
