<svg width="81" height="25" viewBox="0 0 81 25" fill="none" xmlns="http://www.w3.org/2000/svg">
<g clip-path="url(#clip0)">
<path d="M11.9373 3.48145V14.5315C11.921 15.3389 11.5895 16.1068 11.0156 16.6667C10.4417 17.2266 9.67221 17.5327 8.87597 17.518C8.07973 17.5327 7.31024 17.2266 6.73633 16.6667C6.16242 16.1068 5.83095 15.3389 5.81467 14.5315V3.48145H0.304321V15.5296C0.314517 17.8651 1.23394 20.102 2.86248 21.7535C4.49103 23.4049 6.69688 24.3373 8.99997 24.3476C11.3031 24.3373 13.5089 23.4049 15.1375 21.7535C16.766 20.102 17.6854 17.8651 17.6956 15.5296V3.48145H11.9373Z" fill="url(#paint0_linear)"/>
<path d="M11.9372 0L5.69061 2.60926V3.47377H11.9372V0Z" fill="#FD3381"/>
</g>
<path d="M23.4163 13.9727V10.6152C23.4163 10.5098 23.4495 10.4238 23.5159 10.3574C23.5862 10.2871 23.6722 10.252 23.7737 10.252H25.0862C25.1878 10.252 25.2718 10.2871 25.3382 10.3574C25.4085 10.4238 25.4437 10.5098 25.4437 10.6152V13.9727C25.4437 14.9102 25.8148 15.3789 26.5569 15.3789C27.0452 15.3789 27.5706 15.0977 28.1331 14.5352V10.6152C28.1331 10.5098 28.1663 10.4238 28.2327 10.3574C28.303 10.2871 28.389 10.252 28.4905 10.252H29.7972C29.9026 10.252 29.9886 10.2871 30.055 10.3574C30.1253 10.4238 30.1605 10.5098 30.1605 10.6152V16.3164C30.1605 16.418 30.1253 16.5039 30.055 16.5742C29.9886 16.6406 29.9026 16.6738 29.7972 16.6738H28.4905C28.389 16.6738 28.303 16.6406 28.2327 16.5742C28.1663 16.5039 28.1331 16.418 28.1331 16.3164V15.9414C27.4612 16.5078 26.7444 16.791 25.9827 16.791C25.2249 16.791 24.6077 16.5605 24.1312 16.0996C23.6546 15.6348 23.4163 14.9258 23.4163 13.9727ZM36.3128 9.64258L35.5042 9.54297C34.7269 9.54297 34.221 9.64844 33.9866 9.85938C33.7523 10.0664 33.6351 10.498 33.6351 11.1543V11.248H35.7562C35.8616 11.248 35.9476 11.2832 36.014 11.3535C36.0843 11.4199 36.1194 11.5059 36.1194 11.6113V12.3086C36.1194 12.4141 36.0843 12.5 36.014 12.5664C35.9476 12.6328 35.8616 12.666 35.7562 12.666H33.6351V16.3164C33.6351 16.4219 33.5999 16.5078 33.5296 16.5742C33.4632 16.6406 33.3792 16.6738 33.2776 16.6738H31.9651C31.8597 16.6738 31.7737 16.6406 31.7073 16.5742C31.6409 16.5078 31.6077 16.4219 31.6077 16.3164V11.1543C31.6077 10.0645 31.8558 9.29297 32.3519 8.83984C32.848 8.38281 33.7191 8.1543 34.9651 8.1543C35.6058 8.1543 36.053 8.17773 36.3069 8.22461C36.5609 8.27148 36.721 8.33008 36.7874 8.40039C36.8538 8.4668 36.887 8.54492 36.887 8.63477V9.2793C36.887 9.38477 36.8519 9.47266 36.7816 9.54297C36.7151 9.60938 36.6312 9.64258 36.5296 9.64258H36.3128ZM37.8655 15.9473C37.2562 15.3848 36.9515 14.5566 36.9515 13.4629C36.9515 12.3652 37.2562 11.5371 37.8655 10.9785C38.4749 10.416 39.3499 10.1348 40.4905 10.1348C41.6351 10.1348 42.512 10.416 43.1214 10.9785C43.7308 11.5371 44.0355 12.3652 44.0355 13.4629C44.0355 14.5566 43.7308 15.3848 43.1214 15.9473C42.512 16.5098 41.6351 16.791 40.4905 16.791C39.3499 16.791 38.4749 16.5098 37.8655 15.9473ZM39.348 11.9395C39.1058 12.2559 38.9847 12.7617 38.9847 13.457C38.9847 14.1523 39.1058 14.6602 39.348 14.9805C39.5901 15.3008 39.971 15.4609 40.4905 15.4609C41.014 15.4609 41.3968 15.3008 41.639 14.9805C41.8851 14.6602 42.0081 14.1523 42.0081 13.457C42.0081 12.7617 41.8851 12.2559 41.639 11.9395C41.3968 11.623 41.014 11.4648 40.4905 11.4648C39.971 11.4648 39.5901 11.623 39.348 11.9395ZM45.1194 16.3164V10.6152C45.1194 10.5098 45.1526 10.4238 45.2191 10.3574C45.2894 10.2871 45.3753 10.252 45.4769 10.252H46.7894C46.8948 10.252 46.9808 10.2871 47.0472 10.3574C47.1136 10.4238 47.1468 10.5098 47.1468 10.6152V10.9844C47.428 10.7109 47.7034 10.502 47.973 10.3574C48.2464 10.209 48.5745 10.1348 48.9573 10.1348C49.8675 10.1348 50.5569 10.5098 51.0257 11.2598C51.7523 10.5059 52.4964 10.1309 53.2581 10.1348C54.0237 10.1348 54.6273 10.3652 55.0687 10.8262C55.514 11.2832 55.7366 11.9922 55.7366 12.9531V16.3164C55.7366 16.4219 55.7034 16.5078 55.637 16.5742C55.5706 16.6406 55.4847 16.6738 55.3792 16.6738H54.0726C53.9671 16.6738 53.8792 16.6406 53.8089 16.5742C53.7425 16.5039 53.7093 16.418 53.7093 16.3164V12.9531C53.7093 12.0156 53.3694 11.5488 52.6898 11.5527C52.2757 11.5527 51.848 11.8516 51.4066 12.4492C51.43 12.6172 51.4417 12.7852 51.4417 12.9531V16.3164C51.4417 16.4219 51.4066 16.5078 51.3362 16.5742C51.2698 16.6406 51.1859 16.6738 51.0843 16.6738H49.7776C49.6722 16.6738 49.5843 16.6406 49.514 16.5742C49.4476 16.5039 49.4144 16.418 49.4144 16.3164V12.9531C49.4144 12.0156 49.0745 11.5488 48.3948 11.5527C47.9612 11.5527 47.5452 11.832 47.1468 12.3906V16.3164C47.1468 16.4219 47.1116 16.5078 47.0413 16.5742C46.9749 16.6406 46.8909 16.6738 46.7894 16.6738H45.4769C45.3714 16.6738 45.2855 16.6406 45.2191 16.5742C45.1526 16.5078 45.1194 16.4219 45.1194 16.3164ZM57.178 13.9727V10.6152C57.178 10.5098 57.2112 10.4238 57.2776 10.3574C57.348 10.2871 57.4339 10.252 57.5355 10.252H58.848C58.9495 10.252 59.0335 10.2871 59.0999 10.3574C59.1702 10.4238 59.2054 10.5098 59.2054 10.6152V13.9727C59.2054 14.9102 59.5765 15.3789 60.3187 15.3789C60.8069 15.3789 61.3323 15.0977 61.8948 14.5352V10.6152C61.8948 10.5098 61.928 10.4238 61.9944 10.3574C62.0648 10.2871 62.1507 10.252 62.2523 10.252H63.5589C63.6644 10.252 63.7503 10.2871 63.8167 10.3574C63.887 10.4238 63.9222 10.5098 63.9222 10.6152V16.3164C63.9222 16.418 63.887 16.5039 63.8167 16.5742C63.7503 16.6406 63.6644 16.6738 63.5589 16.6738H62.2523C62.1507 16.6738 62.0648 16.6406 61.9944 16.5742C61.928 16.5039 61.8948 16.418 61.8948 16.3164V15.9414C61.223 16.5078 60.5062 16.791 59.7444 16.791C58.9866 16.791 58.3694 16.5605 57.8929 16.0996C57.4163 15.6348 57.178 14.9258 57.178 13.9727ZM65.0062 12.0273C65.0062 10.7656 66.0237 10.1348 68.0589 10.1348C70.1995 10.1348 71.2698 10.6953 71.2698 11.8164C71.2698 11.918 71.2366 12.0039 71.1702 12.0742C71.1038 12.1406 71.0179 12.1738 70.9124 12.1738H70.0394C69.7581 12.1738 69.5218 12.0566 69.3304 11.8223C69.139 11.584 68.762 11.4648 68.1995 11.4648C67.4261 11.4648 67.0394 11.6523 67.0394 12.0273C67.0394 12.2031 67.1898 12.3496 67.4905 12.4668C67.7952 12.584 68.1644 12.6875 68.598 12.7773C69.0355 12.8633 69.471 12.9746 69.9046 13.1113C70.3382 13.248 70.7054 13.4668 71.0062 13.7676C71.3109 14.0645 71.4632 14.4414 71.4632 14.8984C71.4632 16.1602 70.389 16.791 68.2405 16.791C66.0921 16.791 65.0179 16.2324 65.0179 15.1152C65.0179 15.0098 65.0511 14.9238 65.1175 14.8574C65.1878 14.7871 65.2757 14.752 65.3812 14.752H66.2542C66.5355 14.752 66.7718 14.8711 66.9632 15.1094C67.1546 15.3438 67.5316 15.4609 68.0941 15.4609C68.9886 15.4609 69.4359 15.2734 69.4359 14.8984C69.4359 14.7227 69.2835 14.5762 68.9788 14.459C68.678 14.3418 68.3089 14.2383 67.8714 14.1484C67.4339 14.0547 66.9984 13.9414 66.5648 13.8086C66.1351 13.6719 65.7679 13.4531 65.4632 13.1523C65.1585 12.8516 65.0062 12.4766 65.0062 12.0273Z" fill="#E7E7E7"/>
<defs>
<linearGradient id="paint0_linear" x1="0.304321" y1="13.9106" x2="17.6956" y2="13.9106" gradientUnits="userSpaceOnUse">
<stop stop-color="#00FFFF"/>
<stop offset="1" stop-color="#1FC9FD"/>
</linearGradient>
<clipPath id="clip0">
<rect width="17.3913" height="24.3478" fill="white" transform="translate(0.304321)"/>
</clipPath>
</defs>
</svg>
