<svg width="20" height="20" viewBox="0 0 20 20" fill="none" xmlns="http://www.w3.org/2000/svg">
<path d="M13 6C13 6.79565 12.6839 7.55871 12.1213 8.12132C11.5587 8.68393 10.7956 9 9.99997 9C9.20432 9 8.44126 8.68393 7.87865 8.12132C7.31604 7.55871 6.99997 6.79565 6.99997 6C6.99997 5.20435 7.31604 4.44129 7.87865 3.87868C8.44126 3.31607 9.20432 3 9.99997 3C10.7956 3 11.5587 3.31607 12.1213 3.87868C12.6839 4.44129 13 5.20435 13 6V6Z" stroke="#373737" stroke-width="0.9" stroke-linecap="round" stroke-linejoin="round"/>
<path d="M9.99999 9.1665C8.45289 9.1665 6.96916 9.78109 5.8752 10.875C4.78124 11.969 4.16666 13.4527 4.16666 14.9998H15.8333C15.8333 13.4527 15.2187 11.969 14.1248 10.875C13.0308 9.78109 11.5471 9.1665 9.99999 9.1665V9.1665Z" stroke="#373737" stroke-width="0.9" stroke-linecap="round" stroke-linejoin="round"/>
</svg>
