<svg width="18" height="18" viewBox="0 0 18 18" fill="none" xmlns="http://www.w3.org/2000/svg">
<path d="M4.95675 3.75975C6.08117 2.79015 7.51527 2.25466 9 2.25C12.0263 2.25 14.5384 4.5 14.8118 7.40137C16.6028 7.6545 18 9.15412 18 10.9946C18 13.0151 16.3148 14.625 14.2729 14.625H4.25362C1.9215 14.625 0 12.7867 0 10.4827C0 8.49937 1.42425 6.85687 3.30975 6.44062C3.47062 5.46975 4.095 4.50225 4.95675 3.75975V3.75975ZM5.69138 4.61137C4.83975 5.346 4.39425 6.23138 4.39425 6.92438V7.42838L3.89362 7.4835C2.322 7.65562 1.125 8.946 1.125 10.4827C1.125 12.1331 2.50875 13.5 4.25362 13.5H14.2729C15.7275 13.5 16.875 12.3615 16.875 10.9946C16.875 9.62662 15.7275 8.48813 14.2729 8.48813H13.7104V7.92563C13.7115 5.42813 11.619 3.375 9 3.375C7.78486 3.37985 6.61145 3.81874 5.69138 4.6125V4.61137Z" fill="#00FFFF"/>
</svg>
