<svg width="18" height="18" viewBox="0 0 18 18" fill="none" xmlns="http://www.w3.org/2000/svg">
<path d="M15.5762 4.67377L16.372 3.87805C15.8986 3.36474 15.3241 2.95508 14.6846 2.67487C14.0451 2.39466 13.3545 2.25 12.6563 2.25C11.958 2.25 11.2674 2.39466 10.6279 2.67487C9.98838 2.95508 9.41386 3.36474 8.94055 3.87805L9.73628 4.67377C10.1049 4.26493 10.5554 3.93807 11.0584 3.71434C11.5614 3.49061 12.1057 3.375 12.6563 3.375C13.2068 3.375 13.7511 3.49061 14.2541 3.71434C14.7571 3.93807 15.2076 4.26493 15.5762 4.67377Z" fill="#00FFFF"/>
<path d="M10.5333 5.47083L11.3314 6.26888C11.489 6.0682 11.6901 5.90596 11.9196 5.79439C12.1491 5.68282 12.4009 5.62485 12.6561 5.62485C12.9113 5.62485 13.1631 5.68282 13.3926 5.79439C13.6221 5.90596 13.8232 6.0682 13.9808 6.26888L14.7789 5.47083C14.5154 5.16615 14.1895 4.92174 13.8231 4.75422C13.4568 4.5867 13.0588 4.5 12.656 4.5C12.2532 4.5 11.8551 4.5867 11.4888 4.75422C11.1225 4.92174 10.7965 5.16615 10.5331 5.47083H10.5333Z" fill="#00FFFF"/>
<path d="M16.5938 9.84375H13.2188V7.59375H12.0938V9.84375H1.40625C1.18255 9.84401 0.968094 9.93299 0.809916 10.0912C0.651739 10.2493 0.562761 10.4638 0.5625 10.6875V14.625C0.562761 14.8487 0.651739 15.0632 0.809916 15.2213C0.968094 15.3795 1.18255 15.4685 1.40625 15.4688H16.5938C16.8174 15.4685 17.0319 15.3795 17.1901 15.2213C17.3483 15.0632 17.4372 14.8487 17.4375 14.625V10.6875C17.4372 10.4638 17.3483 10.2493 17.1901 10.0912C17.0319 9.93299 16.8174 9.84401 16.5938 9.84375ZM16.3125 14.3438H1.6875V10.9688H16.3125V14.3438Z" fill="#00FFFF"/>
<path d="M3.375 12.0938H4.5V13.2188H3.375V12.0938Z" fill="#00FFFF"/>
<path d="M6.1875 12.0938H7.3125V13.2188H6.1875V12.0938Z" fill="#00FFFF"/>
<path d="M9 12.0938H10.125V13.2188H9V12.0938Z" fill="#00FFFF"/>
</svg>
