<svg width="31" height="24" viewBox="0 0 31 24" fill="none" xmlns="http://www.w3.org/2000/svg">
<path d="M18.6328 17.4807L18.6168 17.4679L17.5439 16.635C17.476 16.5818 17.4218 16.5134 17.3857 16.4354C17.3497 16.3574 17.3328 16.2721 17.3366 16.1864V15.7974C17.3332 15.7122 17.3502 15.6275 17.3863 15.5502C17.4224 15.4728 17.4766 15.4051 17.5443 15.3525L18.6168 14.5192L18.6328 14.5064C18.7982 14.37 18.9092 14.1798 18.9459 13.9698C18.9827 13.7598 18.9428 13.5437 18.8334 13.3602L17.3814 10.8731C17.3798 10.8708 17.3783 10.8683 17.377 10.8657C17.267 10.6847 17.0964 10.5476 16.8949 10.4781C16.6934 10.4087 16.4737 10.4112 16.2739 10.4854L16.262 10.4898L15.0008 10.9923C14.9212 11.0241 14.8351 11.0368 14.7495 11.0293C14.664 11.0217 14.5815 10.9942 14.5089 10.9489C14.3974 10.8793 14.284 10.8136 14.1689 10.7517C14.0943 10.7116 14.0302 10.6547 13.9818 10.5856C13.9335 10.5165 13.9022 10.4371 13.8905 10.3539L13.7005 9.02151L13.6964 8.99727C13.655 8.79091 13.5432 8.60493 13.3796 8.47059C13.216 8.33625 13.0108 8.26174 12.7982 8.25958H9.89099C9.67549 8.26027 9.46714 8.33622 9.30265 8.47406C9.13816 8.6119 9.02809 8.80279 8.99183 9.01309L8.98877 9.03194L8.79942 10.367C8.7878 10.45 8.75677 10.5292 8.70879 10.5983C8.66081 10.6673 8.5972 10.7243 8.52304 10.7648C8.40757 10.8263 8.2942 10.8917 8.18309 10.9606C8.11056 11.0057 8.02829 11.033 7.94301 11.0404C7.85774 11.0479 7.7719 11.0352 7.69254 11.0034L6.43031 10.4986L6.41841 10.4939C6.21834 10.4196 5.99829 10.4171 5.79655 10.4868C5.59481 10.5565 5.42415 10.6941 5.31426 10.8755L5.30984 10.8829L3.85587 13.3716C3.74628 13.5553 3.70629 13.7717 3.74303 13.9819C3.77978 14.1922 3.89087 14.3826 4.05644 14.5192L4.07242 14.532L5.1453 15.3649C5.21324 15.4181 5.26747 15.4865 5.30352 15.5645C5.33956 15.6425 5.35641 15.7278 5.35267 15.8135V16.2026C5.35608 16.2877 5.33902 16.3724 5.30291 16.4498C5.26681 16.5271 5.21267 16.5949 5.14496 16.6475L4.07242 17.4807L4.05644 17.4935C3.89103 17.6299 3.78003 17.8201 3.74329 18.0301C3.70654 18.2401 3.74645 18.4562 3.85587 18.6398L5.3078 21.1268C5.30947 21.1291 5.31095 21.1316 5.31222 21.1342C5.42223 21.3152 5.59281 21.4523 5.79432 21.5218C5.99584 21.5913 6.21557 21.5887 6.41535 21.5145L6.42725 21.5101L7.68744 21.0077C7.76705 20.9758 7.85316 20.9631 7.93868 20.9707C8.02421 20.9782 8.1067 21.0058 8.17935 21.0511C8.29085 21.1208 8.40417 21.1866 8.5193 21.2483C8.59394 21.2884 8.65803 21.3452 8.70639 21.4143C8.75476 21.4834 8.78604 21.5628 8.79772 21.6461L8.98673 22.9784L8.99081 23.0027C9.03225 23.2094 9.14441 23.3956 9.30839 23.53C9.47237 23.6644 9.67813 23.7387 9.89099 23.7404H12.7982C13.0137 23.7397 13.2221 23.6637 13.3866 23.5259C13.5511 23.388 13.6611 23.1971 13.6974 22.9868L13.7005 22.968L13.8898 21.6329C13.9016 21.5498 13.9329 21.4705 13.9812 21.4014C14.0295 21.3323 14.0934 21.2754 14.1679 21.2352C14.2842 21.1732 14.3977 21.1076 14.5078 21.0393C14.5804 20.9943 14.6626 20.9669 14.7479 20.9595C14.8332 20.9521 14.919 20.9648 14.9984 20.9966L16.2606 21.4997L16.2725 21.5044C16.4726 21.5788 16.6927 21.5814 16.8945 21.5116C17.0962 21.4419 17.2669 21.3043 17.3767 21.1228C17.378 21.1202 17.3795 21.1177 17.3811 21.1154L18.833 18.6287C18.9428 18.445 18.983 18.2286 18.9463 18.0182C18.9096 17.8079 18.7985 17.6174 18.6328 17.4807ZM14.0612 16.1265C14.0364 16.6477 13.8592 17.1505 13.5512 17.5738C13.2431 17.9971 12.8174 18.3227 12.3259 18.511C11.8344 18.6992 11.2982 18.742 10.7826 18.6342C10.2669 18.5264 9.79404 18.2726 9.4214 17.9037C9.04876 17.5347 8.79244 17.0666 8.6836 16.5561C8.57475 16.0456 8.61808 15.5148 8.80831 15.0282C8.99854 14.5417 9.32748 14.1203 9.75513 13.8154C10.1828 13.5105 10.6907 13.3351 11.2171 13.3107C11.5951 13.2942 11.9723 13.3558 12.325 13.4915C12.6776 13.6271 12.9978 13.834 13.2653 14.0988C13.5328 14.3637 13.7417 14.6807 13.8787 15.0298C14.0157 15.3789 14.0778 15.7524 14.0612 16.1265Z" fill="#1FC9FD"/>
<path d="M27.9619 6.51801L27.9508 6.50922L27.2045 5.93658C27.1572 5.9 27.1195 5.85297 27.0944 5.79935C27.0693 5.74574 27.0576 5.68707 27.0602 5.62816V5.3607C27.0578 5.30216 27.0697 5.24392 27.0948 5.19074C27.1199 5.13757 27.1576 5.09099 27.2047 5.05482L27.9508 4.48195L27.9619 4.47316C28.077 4.37938 28.1542 4.24861 28.1798 4.10423C28.2053 3.95986 28.1776 3.8113 28.1015 3.68511L27.0914 1.97529C27.0903 1.97367 27.0892 1.97197 27.0884 1.9702C27.0118 1.84576 26.8932 1.75147 26.753 1.70371C26.6128 1.65595 26.4599 1.65773 26.321 1.70875L26.3127 1.71176L25.4353 2.05719C25.3799 2.0791 25.32 2.08782 25.2605 2.08263C25.201 2.07744 25.1437 2.05849 25.0931 2.02735C25.0155 1.97953 24.9367 1.93434 24.8566 1.89176C24.8047 1.86421 24.7601 1.82511 24.7265 1.77761C24.6928 1.7301 24.6711 1.67553 24.6629 1.61828L24.5307 0.702289L24.5279 0.68563C24.4991 0.543753 24.4213 0.415892 24.3075 0.323534C24.1938 0.231176 24.0509 0.179951 23.9031 0.178467H21.8807C21.7308 0.178936 21.5858 0.231154 21.4714 0.32592C21.357 0.420686 21.2804 0.551921 21.2552 0.696505L21.253 0.709461L21.1213 1.62731C21.1132 1.68439 21.0917 1.73883 21.0583 1.78631C21.0249 1.83379 20.9807 1.87299 20.9291 1.90079C20.8487 1.94311 20.7699 1.98802 20.6926 2.03544C20.6421 2.0664 20.5849 2.0852 20.5256 2.09031C20.4662 2.09542 20.4065 2.08668 20.3513 2.06483L19.4732 1.71777L19.465 1.71453C19.3258 1.66346 19.1727 1.66175 19.0324 1.70969C18.892 1.75762 18.7733 1.85218 18.6969 1.97691L18.6938 1.982L17.6823 3.69298C17.6061 3.81929 17.5783 3.96802 17.6038 4.11256C17.6294 4.25711 17.7067 4.38804 17.8219 4.48195L17.833 4.49074L18.5793 5.06339C18.6266 5.09997 18.6643 5.147 18.6894 5.20061C18.7145 5.25423 18.7262 5.3129 18.7236 5.3718V5.63927C18.726 5.6978 18.7141 5.75605 18.689 5.80922C18.6639 5.86239 18.6262 5.90897 18.5791 5.94514L17.833 6.51801L17.8219 6.5268C17.7068 6.62058 17.6296 6.75136 17.604 6.89573C17.5785 7.0401 17.6062 7.18866 17.6823 7.31485L18.6924 9.02468C18.6935 9.02629 18.6946 9.02799 18.6954 9.02977C18.772 9.1542 18.8906 9.24849 19.0308 9.29625C19.171 9.34401 19.3239 9.34223 19.4628 9.29121L19.4711 9.28821L20.3478 8.94277C20.4032 8.92086 20.4631 8.91215 20.5226 8.91734C20.582 8.92253 20.6394 8.94147 20.69 8.97262C20.7675 9.02059 20.8464 9.06578 20.9265 9.1082C20.9784 9.13575 21.023 9.17485 21.0566 9.22236C21.0903 9.26986 21.112 9.32444 21.1201 9.38168L21.2516 10.2977L21.2545 10.3143C21.2833 10.4564 21.3613 10.5845 21.4754 10.6769C21.5895 10.7692 21.7326 10.8203 21.8807 10.8215H23.9031C24.053 10.821 24.198 10.7688 24.3124 10.674C24.4268 10.5793 24.5034 10.448 24.5286 10.3035L24.5307 10.2905L24.6625 9.37266C24.6707 9.31547 24.6924 9.26095 24.726 9.21347C24.7596 9.16598 24.8041 9.12684 24.8559 9.09918C24.9368 9.0566 25.0158 9.01149 25.0924 8.96452C25.1429 8.93357 25.2001 8.91476 25.2594 8.90965C25.3187 8.90455 25.3785 8.91328 25.4337 8.93513L26.3117 9.28103L26.32 9.28427C26.4592 9.33544 26.6123 9.3372 26.7527 9.28925C26.893 9.24131 27.0117 9.14669 27.0881 9.0219C27.0891 9.02015 27.0901 9.01845 27.0912 9.01681L28.1012 7.30721C28.1776 7.18092 28.2055 7.03214 28.18 6.88754C28.1545 6.74293 28.0772 6.61194 27.9619 6.51801ZM24.7817 5.58698C24.7644 5.94527 24.6412 6.29095 24.4269 6.58198C24.2126 6.87301 23.9165 7.09685 23.5745 7.22629C23.2326 7.35572 22.8596 7.38516 22.5009 7.31104C22.1422 7.23692 21.8132 7.06243 21.554 6.80878C21.2948 6.55513 21.1165 6.23326 21.0408 5.8823C20.965 5.53134 20.9952 5.16642 21.1275 4.83191C21.2598 4.49741 21.4887 4.20772 21.7862 3.99809C22.0837 3.78846 22.437 3.66791 22.8032 3.6511C23.0661 3.63978 23.3286 3.6821 23.5739 3.77538C23.8192 3.86867 24.0419 4.01087 24.228 4.19294C24.4141 4.37502 24.5594 4.59298 24.6547 4.83298C24.75 5.07297 24.7933 5.32975 24.7817 5.58698Z" fill="#1FC9FD"/>
</svg>
