<svg width="32" height="32" viewBox="0 0 32 32" fill="none" xmlns="http://www.w3.org/2000/svg">
<path d="M20 15.6667C20 15.1144 20.4477 14.6667 21 14.6667H28.3333C28.8856 14.6667 29.3333 15.1144 29.3333 15.6667V16.3334C29.3333 16.8856 28.8856 17.3334 28.3333 17.3334H21C20.4477 17.3334 20 16.8856 20 16.3334V15.6667ZM21.3333 21C21.3333 20.4477 21.781 20 22.3333 20H28.3333C28.8856 20 29.3333 20.4477 29.3333 21V21.6667C29.3333 22.219 28.8856 22.6667 28.3333 22.6667H22.3333C21.781 22.6667 21.3333 22.219 21.3333 21.6667V21ZM18.6667 10.3334C18.6667 9.78107 19.1144 9.33335 19.6667 9.33335H28.3333C28.8856 9.33335 29.3333 9.78107 29.3333 10.3334V11C29.3333 11.5523 28.8856 12 28.3333 12H19.6667C19.1144 12 18.6667 11.5523 18.6667 11V10.3334ZM5.33332 25.3334H17.6667C18.2189 25.3334 18.6667 24.8856 18.6667 24.3334V24C18.6667 20.324 15.676 17.3334 12 17.3334H9.33332C5.65732 17.3334 2.66666 20.324 2.66666 24V24.3334C2.66666 24.8856 3.11437 25.3334 3.66666 25.3334H5.33332ZM10.6667 16C13.3267 16 15.3333 13.9934 15.3333 11.3334C15.3333 8.67335 13.3267 6.66669 10.6667 6.66669C8.00666 6.66669 5.99999 8.67335 5.99999 11.3334C5.99999 13.9934 8.00666 16 10.6667 16Z" fill="#1FC9FD"/>
</svg>
