<svg width="24" height="24" viewBox="0 0 24 24" fill="none" xmlns="http://www.w3.org/2000/svg">
<path d="M14 5.00006C14.2337 4.9996 14.4601 5.08098 14.64 5.23006C14.7413 5.31401 14.825 5.41711 14.8863 5.53346C14.9477 5.6498 14.9855 5.77711 14.9975 5.90809C15.0096 6.03906 14.9957 6.17114 14.9567 6.29674C14.9177 6.42234 14.8542 6.53901 14.77 6.64006L10.29 12.0001L14.61 17.3701C14.6931 17.4723 14.7551 17.59 14.7925 17.7164C14.83 17.8427 14.8421 17.9752 14.8281 18.1062C14.8142 18.2373 14.7745 18.3643 14.7113 18.4799C14.6481 18.5955 14.5627 18.6975 14.46 18.7801C14.3565 18.8711 14.2354 18.9398 14.1041 18.9818C13.9729 19.0237 13.8343 19.0381 13.6972 19.0241C13.5601 19.01 13.4274 18.9677 13.3075 18.8999C13.1875 18.8321 13.0828 18.7402 13 18.6301L8.17001 12.6301C8.02293 12.4511 7.94252 12.2267 7.94252 11.9951C7.94252 11.7634 8.02293 11.539 8.17001 11.3601L13.17 5.36006C13.2703 5.23904 13.3978 5.14338 13.542 5.08083C13.6862 5.01828 13.8431 4.99061 14 5.00006Z" fill="black"/>
</svg>
