<svg width="24" height="24" viewBox="0 0 24 24" fill="none" xmlns="http://www.w3.org/2000/svg">
<path d="M21.8667 5.78672L18.2134 2.13339C17.7366 1.68552 17.1117 1.42853 16.4578 1.41132C15.8039 1.39412 15.1664 1.61788 14.6667 2.04005L2.6667 14.0401C2.23572 14.4747 1.96737 15.0443 1.9067 15.6534L1.33336 21.2134C1.3154 21.4087 1.34074 21.6055 1.40758 21.7899C1.47441 21.9743 1.5811 22.1416 1.72003 22.2801C1.84462 22.4036 1.99237 22.5014 2.15482 22.5678C2.31727 22.6341 2.49122 22.6677 2.6667 22.6667H2.7867L8.3467 22.1601C8.95576 22.0994 9.52541 21.831 9.96003 21.4001L21.96 9.40005C22.4258 8.90801 22.6775 8.2514 22.66 7.5741C22.6425 6.89681 22.3572 6.25406 21.8667 5.78672ZM8.1067 19.4934L4.1067 19.8667L4.4667 15.8667L12 8.42672L15.6 12.0267L8.1067 19.4934ZM17.3334 10.2401L13.76 6.66672L16.36 4.00005L20 7.64005L17.3334 10.2401Z" fill="#1FC9FD" stroke="#EFFBFF"/>
</svg>
