<svg width="37" height="38" viewBox="0 0 37 38" fill="none" xmlns="http://www.w3.org/2000/svg">
<path d="M3.11139 19.5497C2.76327 17.8135 3.14745 16.0042 4.17966 14.5186C5.21187 13.033 6.8078 11.9925 8.61734 11.6254L13.8638 10.567C13.9302 10.5532 20.5463 9.11696 25.8391 2.76031C26.1597 2.37484 26.5865 2.08365 27.0693 1.92095C27.5522 1.75825 28.0711 1.73081 28.565 1.84185C29.0588 1.95289 29.5072 2.1978 29.8575 2.5478C30.2077 2.89779 30.4451 3.33833 30.542 3.81764L34.4958 23.4166C34.5956 23.8957 34.5492 24.3945 34.3622 24.8533C34.1751 25.3121 33.8554 25.7114 33.4412 26.0033C33.1234 26.2312 32.7586 26.39 32.3726 26.4686C31.7562 26.5917 31.1179 26.5017 30.5707 26.2146C27.0918 24.4012 23.1855 23.4541 19.202 23.4581L19.9248 27.0407C20.0208 27.5083 19.9784 27.9946 19.8022 28.4444C19.6259 28.8943 19.323 29.2896 18.9278 29.5857L16.7153 31.2545C16.3976 31.4941 16.0292 31.6628 15.6373 31.7483C15.2454 31.8337 14.84 31.8337 14.451 31.7482C14.062 31.6626 13.6993 31.4938 13.3898 31.2542C13.0802 31.0145 12.8317 30.7102 12.6626 30.3636L9.97635 24.8602C8.35556 24.8922 6.7831 24.3793 5.52996 23.4099C4.27682 22.4405 3.42149 21.0754 3.11139 19.5497ZM31.1327 22.999L27.6038 5.50645C24.737 8.7119 21.1156 11.2125 17.0506 12.7934L18.5797 20.3735C22.9397 20.2548 27.2474 21.1557 31.1327 22.999ZM15.29 28.437L16.7112 27.3651L15.9851 23.7662L13.2768 24.3126L15.29 28.437ZM10.6493 21.6979L15.3755 20.7444L13.9531 13.6937L9.22694 14.6472C8.25202 14.8438 7.39196 15.4039 6.83596 16.2041C6.27996 17.0043 6.07357 17.9791 6.2622 18.9141C6.45082 19.8491 7.019 20.6676 7.84174 21.1897C8.66449 21.7118 9.67441 21.8946 10.6493 21.6979Z" fill="#1FC9FD"/>
</svg>
