<svg width="41" height="41" viewBox="0 0 41 41" fill="none" xmlns="http://www.w3.org/2000/svg">
<path fill-rule="evenodd" clip-rule="evenodd" d="M34.2423 11.7511C33.2812 10.79 31.9776 10.25 30.6184 10.25H10.1184C8.75917 10.25 7.45561 10.79 6.49449 11.7511C5.53336 12.7122 4.99341 14.0158 4.99341 15.375V25.625C4.99341 26.9842 5.53336 28.2878 6.49449 29.2489C7.45561 30.21 8.75917 30.75 10.1184 30.75H30.6184C31.9776 30.75 33.2812 30.21 34.2423 29.2489C35.2035 28.2878 35.7434 26.9842 35.7434 25.625V23.9167H37.4517C37.9048 23.9167 38.3393 23.7367 38.6597 23.4163C38.9801 23.0959 39.1601 22.6614 39.1601 22.2083V18.7917C39.1601 18.3386 38.9801 17.9041 38.6597 17.5837C38.3393 17.2633 37.9048 17.0833 37.4517 17.0833H35.7434V15.375C35.7434 14.0158 35.2035 12.7122 34.2423 11.7511ZM10.1184 12.8125H30.615L30.8627 12.8245C31.4965 12.886 32.0846 13.1813 32.5125 13.6528C32.9405 14.1243 33.1775 14.7383 33.1775 15.375V25.625L33.1655 25.8727C33.104 26.5065 32.8087 27.0946 32.3372 27.5225C31.8657 27.9505 31.2517 28.1875 30.615 28.1875H10.1184L9.8707 28.1755C9.23694 28.114 8.6488 27.8187 8.22087 27.3472C7.79295 26.8757 7.5559 26.2617 7.55591 25.625V15.375L7.56616 15.129C7.62734 14.4946 7.92271 13.9058 8.39462 13.4775C8.86653 13.0492 9.48111 12.8121 10.1184 12.8125ZM28.9101 15.375H11.8267L11.6269 15.387C11.2113 15.4359 10.8282 15.6357 10.5501 15.9484C10.2721 16.261 10.1185 16.6649 10.1184 17.0833V23.9167L10.1304 24.1165C10.1793 24.5321 10.3791 24.9152 10.6918 25.1933C11.0045 25.4713 11.4083 25.6249 11.8267 25.625H28.9101L29.11 25.613C29.5255 25.5641 29.9086 25.3643 30.1867 25.0516C30.4647 24.739 30.6184 24.3351 30.6184 23.9167V17.0833L30.6065 16.8835C30.5575 16.4679 30.3577 16.0848 30.045 15.8067C29.7324 15.5287 29.3285 15.3751 28.9101 15.375ZM14.4908 18H26.7719C27.0727 18 27.363 18.075 27.5878 18.2106C27.8126 18.3462 27.9562 18.5331 27.9914 18.7358L28 18.8333V22.1667C28 22.3708 27.8895 22.5678 27.6896 22.7203C27.4898 22.8728 27.2143 22.9703 26.9156 22.9942L26.7719 23H14.4908C14.19 23 13.8997 22.925 13.6749 22.7894C13.4501 22.6538 13.3065 22.4669 13.2713 22.2642L13.2627 22.1667V18.8333C13.2627 18.6292 13.3732 18.4322 13.5731 18.2797C13.7729 18.1272 14.0484 18.0297 14.3471 18.0058L14.4908 18Z" fill="#1FC9FD"/>
</svg>
