<svg width="41" height="41" viewBox="0 0 41 41" fill="none" xmlns="http://www.w3.org/2000/svg">
<path d="M34.7123 16.9746L31.5092 11.4268C31.1388 10.7834 30.5898 10.2612 29.9286 9.92342C29.2675 9.58566 28.5226 9.44685 27.7842 9.52379C27.0458 9.60074 26.3455 9.89015 25.7682 10.357C25.191 10.8238 24.7614 11.448 24.5316 12.1539L21.1565 6.30791C20.785 5.66356 20.2344 5.14091 19.5716 4.80342C18.9087 4.46594 18.1622 4.32812 17.4226 4.40671C16.6829 4.48529 15.982 4.7769 15.4049 5.24613C14.8278 5.71536 14.3993 6.34204 14.1715 7.05008C13.611 6.22966 12.7546 5.65824 11.7819 5.45575C10.8092 5.25327 9.79583 5.43548 8.95458 5.96412C8.11333 6.49276 7.50957 7.32674 7.27004 8.291C7.03051 9.25526 7.17383 10.2748 7.66992 11.1357L9.44205 14.2052C8.71578 14.0522 7.96075 14.1129 7.26825 14.38C6.57575 14.647 5.97544 15.1089 5.53992 15.7099C5.1044 16.3109 4.85232 17.0252 4.81416 17.7664C4.77601 18.5077 4.95341 19.2441 5.32491 19.8866L11.4109 30.4278C12.2926 31.9609 13.468 33.3051 14.8697 34.3834C16.2715 35.4618 17.8721 36.2532 19.58 36.7124C21.288 37.1716 23.0697 37.2894 24.8232 37.0593C26.5767 36.8292 28.2677 36.2556 29.7993 35.3713C31.3309 34.487 32.6732 33.3094 33.7492 31.9059C34.8253 30.5023 35.614 28.9004 36.0704 27.1917C36.5267 25.483 36.6416 23.7011 36.4086 21.9479C36.1755 20.1948 35.5991 18.5048 34.7123 16.9746ZM34.8186 26.8515C34.1956 29.1769 32.897 31.2653 31.087 32.8527C29.2771 34.4401 27.037 35.455 24.6502 35.7693C22.2633 36.0835 19.8369 35.6829 17.6778 34.6181C15.5186 33.5532 13.7237 31.8721 12.5201 29.7871L6.43415 19.246C6.09435 18.6574 6.00227 17.9579 6.17819 17.3014C6.3541 16.645 6.7836 16.0853 7.37219 15.7454C7.96078 15.4056 8.66025 15.3136 9.31673 15.4895C9.97321 15.6654 10.5329 16.0949 10.8727 16.6835L13.7555 21.6768C13.7753 21.7102 13.798 21.7416 13.8234 21.7708C13.8295 21.778 13.8356 21.7849 13.842 21.7918C13.8666 21.8189 13.8935 21.8438 13.9224 21.8663L13.9242 21.8679C13.9538 21.8897 13.9853 21.909 14.0182 21.9254C14.0264 21.9296 14.0345 21.9334 14.0429 21.9372C14.0741 21.9519 14.1064 21.964 14.1396 21.9734L14.1458 21.9754C14.181 21.9844 14.2168 21.9905 14.253 21.9935C14.2621 21.9943 14.2711 21.9947 14.2802 21.9951C14.2906 21.9957 14.3007 21.9971 14.311 21.9971C14.3357 21.997 14.3604 21.9954 14.385 21.9923C14.3869 21.9923 14.3888 21.9923 14.3906 21.992C14.4275 21.9871 14.4639 21.9789 14.4995 21.9675L14.5251 21.9589C14.6141 21.9282 14.6951 21.8781 14.7624 21.8123C14.8296 21.7465 14.8814 21.6665 14.9139 21.5782C14.9465 21.4899 14.959 21.3954 14.9505 21.3017C14.9421 21.208 14.9129 21.1173 14.8651 21.0362L11.9823 16.0429L11.9821 16.0425L8.77916 10.495C8.43935 9.90647 8.34727 9.20702 8.52317 8.55055C8.69907 7.89409 9.12855 7.33439 9.71712 6.99458C10.3057 6.65478 11.0051 6.56269 11.6616 6.73859C12.3181 6.91449 12.8778 7.34397 13.2176 7.93254L18.6629 17.3641C18.7046 17.4376 18.7605 17.502 18.8273 17.5538C18.8941 17.6056 18.9704 17.6436 19.0519 17.6658C19.1335 17.6879 19.2186 17.6937 19.3024 17.6828C19.3861 17.6719 19.4669 17.6445 19.5401 17.6023C19.6133 17.5601 19.6774 17.5038 19.7287 17.4366C19.78 17.3695 19.8175 17.2929 19.8391 17.2113C19.8607 17.1296 19.866 17.0444 19.8545 16.9607C19.8431 16.877 19.8152 16.7964 19.7724 16.7235L15.6084 9.5112C15.2686 8.92261 15.1765 8.22314 15.3524 7.56666C15.5283 6.91018 15.9578 6.35047 16.5464 6.01066C17.135 5.67086 17.8345 5.57878 18.491 5.7547C19.1474 5.93061 19.7071 6.36011 20.047 6.9487L24.8512 15.2699L24.8516 15.2707L26.1471 17.5145C24.711 18.5286 23.7057 20.0428 23.3285 21.7599C22.9513 23.477 23.2294 25.2731 24.1084 26.7957C24.1497 26.87 24.2053 26.9353 24.2722 26.9879C24.339 27.0405 24.4156 27.0792 24.4975 27.1018C24.5794 27.1245 24.665 27.1306 24.7493 27.1199C24.8336 27.1091 24.915 27.0817 24.9886 27.0392C25.0622 26.9967 25.1266 26.9399 25.1781 26.8723C25.2295 26.8046 25.267 26.7274 25.2884 26.6451C25.3097 26.5629 25.3144 26.4772 25.3023 26.393C25.2902 26.3089 25.2614 26.228 25.2178 26.1551C24.8392 25.4994 24.5935 24.7755 24.4947 24.0248C24.3958 23.2742 24.4459 22.5114 24.6418 21.78C24.8378 21.0486 25.1759 20.3631 25.6369 19.7624C26.0978 19.1617 26.6726 18.6577 27.3283 18.2791C27.3652 18.2577 27.3998 18.2327 27.4318 18.2045C27.4499 18.1874 27.467 18.1692 27.483 18.15C27.4941 18.1374 27.5069 18.1263 27.517 18.1132C27.5341 18.0895 27.5495 18.0647 27.5632 18.0389C27.5693 18.028 27.5772 18.0181 27.5826 18.0068C27.6195 17.9319 27.6413 17.8504 27.647 17.7671C27.648 17.7535 27.6459 17.7402 27.6459 17.7266C27.6469 17.6984 27.646 17.6702 27.6432 17.6422C27.6411 17.6268 27.636 17.6122 27.6329 17.597C27.6285 17.571 27.6226 17.5454 27.615 17.5201C27.6014 17.4798 27.584 17.4409 27.5628 17.404L25.961 14.6296C25.6287 14.0415 25.542 13.3459 25.7199 12.6942C25.8978 12.0425 26.3258 11.4873 26.9109 11.1496C27.496 10.8119 28.1908 10.7189 28.8441 10.8908C29.4974 11.0627 30.0564 11.4856 30.3995 12.0676L33.6026 17.6154C34.4059 18.9981 34.927 20.5263 35.1358 22.1117C35.3445 23.6971 35.2367 25.3082 34.8186 26.8516V26.8515ZM13.5142 38.8031C13.4663 38.8723 13.4052 38.9314 13.3344 38.9769C13.2637 39.0225 13.1846 39.0536 13.1018 39.0686C13.019 39.0836 12.9341 39.0821 12.8519 39.0643C12.7696 39.0464 12.6917 39.0126 12.6226 38.9646C10.3713 37.4062 8.49583 35.3654 7.13276 32.9907C7.04914 32.8437 7.02709 32.6695 7.07142 32.5063C7.11574 32.343 7.22284 32.2039 7.36934 32.1193C7.51585 32.0347 7.68986 32.0115 7.85341 32.0548C8.01696 32.098 8.15676 32.2042 8.24232 32.3501C9.51113 34.5609 11.257 36.4608 13.3527 37.9117C13.4924 38.0085 13.5878 38.1568 13.6181 38.324C13.6483 38.4912 13.611 38.6635 13.5142 38.8031ZM27.5469 4.9642C27.5471 4.79441 27.6146 4.63163 27.7348 4.51163C27.8549 4.39162 28.0177 4.32422 28.1875 4.32422H28.1882C29.7616 4.32786 31.3066 4.7439 32.6691 5.53085C34.0316 6.3178 35.164 7.44816 35.9533 8.80924C35.997 8.88215 36.0258 8.96302 36.0379 9.04715C36.05 9.13128 36.0453 9.21698 36.0239 9.29926C36.0026 9.38154 35.9651 9.45875 35.9137 9.5264C35.8622 9.59404 35.7978 9.65077 35.7242 9.69327C35.6506 9.73578 35.5692 9.76321 35.4849 9.77397C35.4006 9.78473 35.315 9.77861 35.2331 9.75595C35.1511 9.7333 35.0745 9.69457 35.0077 9.64201C34.9409 9.58946 34.8853 9.52414 34.8439 9.44986C34.1672 8.28308 33.1964 7.31411 32.0283 6.63956C30.8602 5.96502 29.5357 5.60847 28.1869 5.60547C28.1028 5.60538 28.0195 5.58873 27.9418 5.55646C27.8641 5.52419 27.7935 5.47693 27.7341 5.41738C27.6747 5.35783 27.6275 5.28717 27.5954 5.20941C27.5633 5.13165 27.5468 5.04833 27.5469 4.9642Z" fill="#1FC9FD" stroke="#1FC9FD"/>
</svg>
