<svg width="14" height="14" viewBox="0 0 14 14" fill="none" xmlns="http://www.w3.org/2000/svg">
<path d="M2.91662 5.83332C2.91635 5.69703 2.96382 5.56494 3.05079 5.45999C3.09976 5.40092 3.1599 5.3521 3.22777 5.31631C3.29564 5.28052 3.3699 5.25847 3.4463 5.25143C3.52271 5.24438 3.59975 5.25248 3.67302 5.27526C3.74629 5.29803 3.81434 5.33504 3.87329 5.38416L6.99995 7.99749L10.1325 5.47749C10.1921 5.42903 10.2608 5.39285 10.3345 5.37101C10.4082 5.34918 10.4855 5.34212 10.5619 5.35026C10.6383 5.35839 10.7124 5.38154 10.7799 5.41839C10.8473 5.45525 10.9068 5.50507 10.955 5.56499C11.0081 5.62534 11.0481 5.69602 11.0726 5.77259C11.0971 5.84916 11.1055 5.92997 11.0973 6.00994C11.0891 6.08991 11.0644 6.16732 11.0249 6.23731C10.9853 6.3073 10.9317 6.36836 10.8675 6.41666L7.36745 9.23416C7.26308 9.31995 7.13215 9.36686 6.99704 9.36686C6.86192 9.36686 6.731 9.31995 6.62662 9.23416L3.12662 6.31749C3.05603 6.25897 3.00022 6.18463 2.96374 6.10051C2.92725 6.01639 2.91111 5.92485 2.91662 5.83332Z" fill="black"/>
</svg>
